# xmcd
#
# Track frame offsets: 
#        150
#        16986
#        28121
#        38242
#        50810
#        66333
#        77352
#        91882
#        118889
#        137408
#
# Disc length: 2027 seconds
#
# Revision: 0
# Processed by: cddbd v1.5PL3 Copyright (c) Steve Scherf et al.
# Submitted via: ExactAudioCopy v0.95a5
#
DISCID=8007e90a
DTITLE=Pia and the JMB - Blues Business
DYEAR=2000
DGENRE=Blues
TTITLE0=The Fieldbus Man Blues
TTITLE1=Paying the cost to be the Boss
TTITLE2=Love to Love you
TTITLE3=Route 66
TTITLE4=Piece of My Heart
TTITLE5=Always Space at My Place
TTITLE6=Swinging Shepherd's Blues
TTITLE7=Cry Me a River
TTITLE8=Let's Go Get Shined
TTITLE9=Use Me
EXTD=
EXTT0=
EXTT1=
EXTT2=
EXTT3=
EXTT4=
EXTT5=
EXTT6=
EXTT7=
EXTT8=
EXTT9=
PLAYORDER=
